# xmcd
#
# Track frame offsets:
#	150
#	22819
#	43909
#	66054
#	82797
#	101565
#	127113
#	150561
#	171337
#	192222
#
# Disc length: 2864
#
# Revision: 1
# Processed by: cddbd v1.5.1PL0 Copyright (c) Steve Scherf et al.
# Submitted via: CDex 1.51
# Normalized: r0:TDELIM( - )
#
DISCID=790b2e0a
DTITLE=Various Artist - Salsa All Stars
DYEAR=1997
DGENRE=Salsa
TTITLE0=Tony Vega - Si me miras a los ojos
TTITLE1=Jose Alberto el Canario - Juego de amor
TTITLE2=Celia Cruz - Bembelequa
TTITLE3=Grupo Caneo - La rutina
TTITLE4=Van Lester - Soy la voz
TTITLE5=India - Mi primera rumba
TTITLE6=Johnny Almendra y Los Jovenes del Barrio - Everybody plays the fool
TTITLE7=Oscar d'Leon - Mirala como se menea
TTITLE8=Tito Nieves - Amores como tù
TTITLE9=Marc Anthony - Hasta que te conocí
EXTD=YEAR: 1997
EXTT0=
EXTT1=
EXTT2=
EXTT3=
EXTT4=
EXTT5=
EXTT6=
EXTT7=
EXTT8=
EXTT9=
PLAYORDER=
